<svg width="38" height="20" viewBox="0 0 38 20" fill="none" xmlns="http://www.w3.org/2000/svg">
<g clip-path="url(#clip0_84_8246)">
<path d="M31.0755 0.929688H6.22135C2.78971 0.929688 0.0078125 3.71158 0.0078125 7.14323V13.3568C0.0078125 16.7884 2.78971 19.5703 6.22135 19.5703H31.0755C34.5072 19.5703 37.2891 16.7884 37.2891 13.3568V7.14323C37.2891 3.71158 34.5072 0.929688 31.0755 0.929688Z" fill="#FF7A87"/>
<path d="M15.7281 6.43916L12.9424 4.82364C12.3107 4.47154 11.3683 4.46118 10.7366 4.82364L7.90944 6.45987C6.75993 7.23656 6.59424 7.43332 6.59424 8.77959V11.7103C6.59424 13.0566 6.75993 13.2637 7.95086 14.0611L10.7262 15.6663C11.0473 15.8527 11.4408 15.9355 11.8343 15.9355C12.2278 15.9355 12.6317 15.8423 12.9424 15.6663L15.7696 14.03C16.9191 13.2533 17.0848 13.0566 17.0848 11.7103V8.77959C17.0848 7.43332 16.9191 7.22621 15.7385 6.43916H15.7281ZM15.7074 11.7103C15.7074 12.1867 15.4865 12.5768 15.0447 12.8805L12.2589 14.4857C12.0518 14.5996 11.6272 14.5996 11.4201 14.4857L8.67577 12.9012C8.1994 12.5837 7.96122 12.1901 7.96122 11.7207V8.78995C7.96122 8.31358 8.1856 7.9235 8.63435 7.61973L11.4097 6.01457C11.5236 5.96279 11.679 5.92136 11.824 5.92136C11.969 5.92136 12.145 5.96279 12.2382 6.01457L14.9825 7.59902C15.4589 7.9166 15.6971 8.31012 15.6971 8.77959V11.7103H15.7074Z" fill="white"/>
<path d="M13.2326 10.4158L12.9737 10.7265L13.0047 11.12C13.0151 11.3479 12.9322 11.5343 12.7769 11.6482C12.6837 11.7207 12.5801 11.7517 12.4559 11.7517C12.373 11.7517 12.2902 11.731 12.197 11.7L11.8242 11.5446L11.4513 11.7C11.2546 11.7725 11.0371 11.7621 10.8818 11.6482C10.7264 11.5343 10.6436 11.3375 10.6539 11.12L10.6746 10.7265L10.4158 10.4158C10.2708 10.2398 10.2293 10.043 10.2811 9.85662C10.3433 9.67021 10.4986 9.53558 10.7161 9.4838L11.1096 9.38024L11.3271 9.0385C11.4513 8.85209 11.6585 8.74854 11.8242 8.74854C12.0106 8.74854 12.197 8.85209 12.3109 9.0385L12.5284 9.38024L12.9115 9.47345C13.129 9.52523 13.2843 9.65985 13.3465 9.84626C13.4086 10.0327 13.3672 10.2294 13.2222 10.4055L13.2326 10.4158Z" fill="white"/>
<path d="M30.6823 14.1027C30.5788 14.2063 30.4441 14.2581 30.2992 14.2581C30.1542 14.2581 30.0092 14.2063 29.9056 14.1027L28.7354 12.9325C28.6319 12.829 28.5801 12.6943 28.5801 12.539C28.5801 12.394 28.6319 12.2594 28.7354 12.1558C28.9425 11.9487 29.305 11.9487 29.5121 12.1558L30.6823 13.326C30.8998 13.5332 30.8998 13.8853 30.6823 14.1027Z" fill="white"/>
<path d="M30.2059 10.4262C30.1748 10.6126 30.0402 10.944 29.481 11.12L28.3522 11.4721C28.2486 11.5032 28.1243 11.6482 28.0933 11.7414L27.824 12.7666C27.648 13.4398 27.3062 13.5847 27.1095 13.6158H27.0163C26.8091 13.6158 26.4881 13.5226 26.1774 13.0152L25.5664 12.0314C25.5147 11.9278 25.349 11.845 25.2351 11.845H25.2247L24.0648 11.9071C23.371 11.9382 23.1224 11.6482 23.0396 11.4721C22.9568 11.2961 22.8739 10.9336 23.3296 10.4055L24.0131 9.60808C24.0855 9.52523 24.127 9.33882 24.0959 9.23526L23.7334 8.11683C23.5678 7.55761 23.7542 7.24693 23.8888 7.12266C24.0234 6.98803 24.3237 6.80163 24.883 6.98803L25.9082 7.31942C26.0014 7.35049 26.1774 7.32978 26.2499 7.26764L27.3269 6.49095C27.8137 6.13885 28.1658 6.24241 28.3315 6.32525C28.4972 6.4081 28.7768 6.64629 28.7664 7.24693L28.7353 8.57249C28.7353 8.66569 28.8078 8.82103 28.8907 8.88316L29.7502 9.53558C30.2266 9.88769 30.237 10.2501 30.2059 10.4262Z" fill="white"/>
</g>
<defs>
<clipPath id="clip0_84_8246">
<rect width="37.2812" height="18.6406" fill="white" transform="translate(0.0078125 0.929688)"/>
</clipPath>
</defs>
</svg>
